<?xml version="1.0" encoding="UTF-8"?>
<svg id="Ebene_1" data-name="Ebene 1" xmlns="http://www.w3.org/2000/svg" viewBox="0 0 3840 379.48">
  <defs>
    <style>
      .cls-1 {
        fill: #cff008;
      }
    </style>
  </defs>
  <g>
    <path d="M1626.79,40.2c56.85,0,80,21.47,80,69.47v20.21c0,23.99-9.26,41.68-26.53,53.05,19.37,11.37,28.65,29.47,28.65,54.73v24.42c0,47.57-21.48,72.83-74.54,72.83h-249.68c-8.42,0-12.62-4.21-12.62-12.62V52.84c0-8.43,4.21-12.64,12.62-12.64h242.1ZM1608.69,160.19c27.36,0,36.2-5.89,36.2-22.31v-12.64c0-17.67-9.69-26.1-31.15-26.1h-172.2c-3.8,0-5.48,1.68-5.48,5.89v55.16h172.63ZM1436.06,270.09c0,4.21,1.68,5.89,5.48,5.89h172.63c21.47,0,31.15-8,31.15-26.53v-13.89c0-18.1-9.27-24.42-36.63-24.42h-172.63v58.96Z"/>
    <path d="M1931.63,40.2c21.9,0,34.52,6.32,48.41,32l139.37,253.04c2.95,5.89,1.68,9.69-5.05,9.69h-53.48c-5.46,0-8-1.27-9.69-5.05l-27.79-51.37h-201.67l-27.36,51.37c-2.11,3.78-4.21,5.05-9.69,5.05h-55.16c-6.73,0-7.99-3.8-5.05-9.69l138.1-253.04c13.48-25.68,26.53-32,44.22-32h24.83ZM1993.53,223.77l-65.26-120.84c-1.27-2.11-2.95-2.95-5.05-2.95h-2.52c-2.11,0-3.38.84-4.64,2.95l-64.85,120.84h142.32Z"/>
    <path d="M2231.01,40.2c30.31,0,35.36,6.32,48.84,24.83l154.93,205.47c1.27,2.11,2.95,2.95,5.48,2.95h3.8c2.1,0,3.37-1.27,3.37-4.21V49.45c0-6.3,2.94-9.26,9.26-9.26h45.05c6.32,0,9.27,2.95,9.27,9.26v241.67c0,33.27-11.37,43.79-37.9,43.79h-37.47c-30.31,0-35.36-6.32-48.41-24.83l-155.36-205.47c-1.68-2.11-2.95-2.95-5.48-2.95h-3.78c-2.54,0-3.38,1.27-3.38,4.21v219.79c0,6.3-3.37,9.26-9.26,9.26h-45.05c-6.32,0-9.26-2.95-9.26-9.26V83.99c0-33.27,10.94-43.79,37.46-43.79h37.9Z"/>
    <path d="M2622.16,40.2c6.3,0,9.26,2.95,9.26,9.26v109.9h58.53c28.63,0,35.77-2.52,46.73-16.85l73.26-96.83c2.94-4.21,5.05-5.48,12.19-5.48h52.64c6.32,0,8.42,5.89,5.05,10.1l-81.68,105.69c-9.26,12.21-17.26,21.47-25.26,28.2,11.37,7.16,21.47,16.85,32,30.33l86.32,109.47c3.37,3.37,1.68,10.94-5.48,10.94h-53.46c-6.73,0-9.26-1.27-12.21-5.48l-77.88-99.78c-10.96-14.31-19.37-17.26-46.75-17.26h-63.99v113.26c0,6.3-2.95,9.26-9.26,9.26h-45.48c-6.32,0-9.26-2.95-9.26-9.26V49.45c0-6.3,2.94-9.26,9.26-9.26h45.48Z"/>
    <path d="M2981.72,40.2c6.3,0,9.26,2.95,9.26,9.26v276.21c0,6.3-2.95,9.26-9.26,9.26h-45.48c-6.32,0-9.26-2.95-9.26-9.26V49.45c0-6.3,2.94-9.26,9.26-9.26h45.48Z"/>
    <path d="M3122.77,40.2c30.31,0,35.36,6.32,48.84,24.83l154.93,205.47c1.27,2.11,2.95,2.95,5.48,2.95h3.8c2.1,0,3.37-1.27,3.37-4.21V49.45c0-6.3,2.94-9.26,9.26-9.26h45.05c6.32,0,9.27,2.95,9.27,9.26v241.67c0,33.27-11.37,43.79-37.9,43.79h-37.47c-30.31,0-35.36-6.32-48.41-24.83l-155.36-205.47c-1.68-2.11-2.95-2.95-5.48-2.95h-3.78c-2.54,0-3.38,1.27-3.38,4.21v219.79c0,6.3-3.37,9.26-9.26,9.26h-45.05c-6.32,0-9.26-2.95-9.26-9.26V83.99c0-33.27,10.94-43.79,37.46-43.79h37.9Z"/>
    <path d="M3786.75,40.2c5.89,0,9.26,2.95,9.26,9.26v41.27c0,6.32-3.37,9.26-9.26,9.26h-210.95c-43.36,0-55.99,13.05-55.99,57.69v60.62c0,44.64,12.62,57.26,55.99,57.26h138.95c14.74,0,21.04-6.3,21.04-25.26v-31.15c0-4.21-1.68-5.89-5.05-5.89h-123.36c-5.89,0-9.26-2.95-9.26-9.26v-37.06c0-5.89,3.37-9.26,9.26-9.26h175.57c8.42,0,12.64,4.21,12.64,12.62v100.21c0,47.16-18.12,64.42-52.21,64.42h-169.68c-85.48,0-117.9-30.31-117.9-111.15v-72.42c0-80.84,32.42-111.15,117.9-111.15h213.04Z"/>
  </g>
  <g>
    <path class="cls-1" d="M541.66,39.78c30.4,0,35.47,6.33,48.99,24.91l155.43,206.04c1.27,2.11,2.96,2.96,5.49,2.96h3.8c2.11,0,3.38-1.27,3.38-4.22l-.03-220.43c0-6.33,2.95-9.29,9.29-9.29h45.18c6.33,0,9.29,2.95,9.29,9.28l.04,242.38c0,33.36-11.39,43.92-38,43.92h-37.58c-30.4.01-35.47-6.32-48.57-24.9l-155.85-206.04c-1.69-2.11-2.96-2.96-5.49-2.96h-3.8c-2.53,0-3.38,1.27-3.38,4.22l.03,220.43c0,6.33-3.38,9.29-9.29,9.29h-45.18c-6.33,0-9.29-2.95-9.29-9.28l-.04-242.38c0-33.36,10.97-43.92,37.58-43.92h38Z"/>
    <path class="cls-1" d="M1179.72,39.68c5.91,0,9.29,2.95,9.29,9.29v40.96c0,5.91-3.37,9.29-9.28,9.29l-185.38.03c-43.49,0-54.89,12.25-54.89,56.59v2.11s237.74-.04,237.74-.04c5.91,0,9.29,2.95,9.29,9.29v37.58c0,6.33-3.37,9.29-9.28,9.29l-237.74.04v5.07c0,44.34,11.41,56.58,54.91,56.58l185.38-.03c5.91,0,9.29,3.38,9.29,9.29v40.96c0,6.33-3.37,9.29-9.28,9.29l-185.8.03c-85.72.01-118.24-30.81-118.25-111.46v-72.63c-.02-80.65,32.49-111.48,118.21-111.5l185.8-.03Z"/>
    <path class="cls-1" d="M305.65,40.02l-44.8,59.35h.15s-17.9,23.75-17.9,23.75c-3.37,4.47-2.48,10.83,2,14.2l33.54,25.23c4.47,3.36,10.81,2.47,14.18-1.99l39.94-52.75c11.51,8.1,15.52,22.9,15.53,48.13v63.34c.02,44.34-12.23,56.59-56.14,56.59l-125.41.02c-43.92,0-56.16-12.24-56.17-56.58v-63.34c-.02-44.34,12.23-56.59,56.14-56.59h42.91c6.39-.01,12.42-3.01,16.27-8.11l38.84-51.44-100.14.02c-85.72.01-118.23,30.84-118.22,111.5v72.63c.02,80.65,32.54,111.47,118.27,111.46l130.06-.02c85.72-.01,118.23-30.42,118.22-111.5v-72.63c-.02-77.5-29.77-108.67-107.26-111.26Z"/>
  </g>
</svg>